<?xml version="1.0" standalone="no"?>
<!DOCTYPE svg PUBLIC "-//W3C//DTD SVG 20010904//EN"
 "http://www.w3.org/TR/2001/REC-SVG-20010904/DTD/svg10.dtd">
<svg version="1.0" xmlns="http://www.w3.org/2000/svg"
 width="2560.000000pt" height="1600.000000pt" viewBox="0 0 2560.000000 1600.000000"
 preserveAspectRatio="xMidYMid meet">

<g transform="translate(0.000000,1600.000000) scale(0.100000,-0.100000)"
fill="#000000" stroke="none">
<path d="M12874 15848 c-377 -583 -760 -1056 -1230 -1518 -414 -407 -804 -708
-1269 -980 -516 -301 -1126 -520 -1590 -570 -100 -11 -123 -19 -111 -39 10
-16 63 -14 219 9 545 80 1190 346 1789 736 70 46 202 122 295 169 387 200 823
488 1203 796 58 47 112 89 120 94 16 10 -54 -92 -259 -380 -236 -330 -435
-590 -700 -910 -156 -188 -209 -265 -363 -520 -63 -104 -145 -237 -182 -295
-134 -212 -420 -813 -556 -1170 -209 -550 -345 -1098 -380 -1530 -7 -90 -19
-160 -35 -210 -66 -205 -113 -511 -84 -546 21 -26 39 3 39 65 0 133 47 356
112 536 222 612 802 1305 1647 1968 140 111 361 271 365 266 2 -2 -28 -87 -65
-189 -208 -570 -342 -1139 -410 -1743 -27 -234 -37 -809 -20 -1049 37 -507
146 -1012 298 -1383 45 -109 45 -112 49 -245 7 -241 39 -443 100 -623 35 -107
56 -139 75 -120 8 8 2 38 -25 113 -257 723 -31 1853 628 3135 144 279 292 542
302 533 2 -3 17 -119 34 -259 184 -1578 221 -2886 100 -3575 -23 -132 -46
-202 -160 -489 -387 -974 -902 -1945 -1590 -3000 -86 -132 -177 -271 -202
-310 -25 -38 -103 -133 -174 -210 -612 -665 -1472 -1506 -2281 -2230 l-189
-170 3269 -3 c1799 -1 3272 0 3274 2 3 2 -56 76 -129 163 -475 560 -973 1228
-1300 1743 -573 904 -931 1817 -1023 2605 -18 157 -19 252 -2 285 13 26 23 30
422 186 276 108 582 267 820 428 241 163 477 373 636 566 40 50 76 90 79 90 4
0 12 -51 19 -112 41 -365 127 -749 218 -968 81 -199 195 -345 310 -397 84 -38
195 -39 276 -1 300 141 498 824 547 1883 6 127 8 296 4 378 l-7 147 79 0 c44
0 96 3 118 7 54 9 65 39 68 203 4 173 7 170 -168 170 l-124 0 0 80 c0 88 -13
113 -66 126 -55 14 -58 4 -66 -197 -3 -101 -8 -221 -11 -267 -4 -77 -3 -85 19
-111 24 -29 24 -29 24 -294 0 -424 -26 -781 -80 -1102 -89 -527 -238 -837
-457 -949 -46 -23 -73 -20 -125 14 -168 111 -351 632 -423 1204 -13 105 -27
230 -31 277 l-6 86 46 80 c119 207 215 458 260 685 24 118 32 180 57 473 17
194 23 1003 10 1380 -13 380 -38 926 -46 1002 l-5 52 93 108 c371 430 698 902
992 1428 140 251 358 701 468 966 l15 36 222 6 c122 4 227 4 232 1 13 -8 4
-1121 -11 -1414 -19 -356 -61 -843 -73 -855 -3 -3 -270 -10 -594 -15 -324 -6
-608 -13 -631 -16 -31 -4 -43 -10 -43 -21 0 -15 37 -15 393 -9 215 3 499 9
630 13 l237 6 0 -33 c0 -18 -5 -61 -11 -96 l-11 -62 -91 -6 c-51 -3 -146 -8
-212 -11 -351 -16 -904 -53 -917 -61 -4 -3 -8 -16 -8 -28 0 -26 22 -36 78 -36
20 0 31 -4 27 -10 -3 -5 -21 -10 -39 -10 -36 0 -56 -15 -56 -42 0 -20 2 -21
68 -38 31 -8 42 -16 42 -30 0 -18 -29 -30 -133 -56 -30 -7 -47 -32 -29 -43 5
-3 78 -2 162 2 83 5 153 7 156 4 2 -2 -9 -34 -26 -72 -16 -37 -27 -71 -24 -76
14 -23 33 -3 66 69 34 76 37 79 74 85 21 4 76 7 120 7 l82 0 6 -387 c22 -1434
45 -2102 91 -2638 27 -313 66 -569 97 -633 18 -36 61 -56 104 -47 127 23 238
287 304 725 10 69 23 152 29 185 5 33 15 125 21 205 6 80 16 206 22 280 7 77
12 349 12 630 1 398 -3 542 -18 735 -14 186 -18 300 -14 507 l5 267 69 92 68
92 381 -7 c427 -8 594 -18 734 -46 271 -52 405 -144 501 -342 77 -158 83 -215
84 -753 1 -242 -1 -525 -4 -630 -5 -173 -3 -190 12 -193 12 -2 20 7 27 35 19
69 50 245 76 423 100 697 76 1200 -71 1491 -44 88 -142 208 -192 237 -56 31
-180 56 -427 86 -304 36 -333 38 -626 45 l-266 6 70 120 c295 506 514 1012
631 1458 64 242 186 819 186 879 0 17 464 -12 482 -30 14 -14 115 -303 184
-526 155 -499 242 -918 262 -1246 6 -104 10 -125 24 -128 19 -4 43 89 108 418
81 406 114 688 114 982 1 120 2 218 3 218 7 0 222 -312 289 -419 l81 -129 7
-234 c51 -1739 67 -2158 121 -3098 18 -327 37 -652 40 -721 l7 -126 -24 -7
c-12 -4 -170 -10 -350 -13 -264 -5 -328 -8 -328 -19 0 -8 12 -17 26 -20 32 -8
620 2 650 11 21 7 22 4 29 -130 5 -99 4 -140 -4 -148 -8 -8 -110 -13 -334 -17
-304 -5 -322 -6 -325 -24 -4 -18 8 -18 333 -14 l337 4 -5 -301 c-5 -333 -34
-667 -163 -1830 -100 -907 -238 -1700 -469 -2690 -155 -668 -429 -1654 -589
-2123 l-25 -72 288 0 288 0 23 58 c99 253 177 500 260 822 27 102 49 177 49
167 1 -10 -24 -243 -54 -517 -30 -274 -55 -505 -55 -514 0 -15 112 -16 1219
-16 l1218 0 7 63 c3 34 13 166 21 292 62 947 58 2069 -10 3220 -28 467 -28
471 9 194 93 -702 197 -1319 317 -1879 57 -264 148 -648 159 -669 7 -14 14 11
96 371 22 93 42 168 45 168 9 0 27 -119 41 -270 14 -141 17 -1204 4 -1382 l-7
-108 1590 0 1591 0 0 6413 0 6414 -372 210 c-637 361 -1030 576 -1096 600 -85
31 -167 31 -213 0 -43 -29 -77 -79 -84 -126 -5 -28 -85 -318 -132 -475 -3 -12
-27 66 -58 190 -100 402 -248 869 -498 1579 -82 232 -189 529 -212 588 -6 14
-1 17 33 17 129 0 407 -322 672 -778 l65 -112 50 8 c28 4 100 6 160 5 182 -2
333 -54 541 -183 196 -123 373 -201 634 -279 121 -37 374 -99 473 -117 l37 -6
0 1026 0 1026 -2215 0 c-1218 0 -2215 -3 -2215 -7 0 -9 641 -1996 645 -2001 2
-2 8 26 14 62 15 86 41 145 87 196 37 41 99 80 128 80 17 0 26 21 26 65 0 58
40 245 77 360 42 133 121 325 134 325 11 0 136 -163 255 -332 395 -564 709
-1236 847 -1808 54 -223 54 -241 -1 -105 -136 336 -360 757 -635 1195 -104
164 -104 165 -171 201 -44 23 -75 48 -88 70 l-21 34 -19 -65 c-140 -482 -234
-764 -373 -1115 -127 -323 -313 -733 -321 -710 -2 6 -28 149 -59 318 -61 339
-170 918 -271 1437 -84 431 -344 1748 -351 1778 l-5 22 -2908 0 -2908 0 -43
-47 c-97 -110 -212 -312 -309 -546 -29 -70 -55 -125 -57 -123 -8 7 18 171 42
267 19 75 105 340 141 433 5 14 -9 16 -109 16 l-115 0 -63 -46 c-208 -152
-553 -555 -874 -1021 -54 -79 -100 -143 -102 -143 -15 0 229 414 359 608 69
104 87 137 78 147 -6 8 -18 11 -25 9 -16 -7 -181 -256 -287 -434 -72 -122
-210 -374 -282 -515 -19 -38 -35 -66 -36 -62 -3 65 182 581 307 856 18 41 31
77 27 80 -9 10 -231 -224 -354 -373 -206 -249 -571 -728 -875 -1149 -70 -97
-130 -176 -131 -174 -6 6 52 204 90 309 80 220 219 534 367 829 49 100 89 182
87 184 -2 2 -315 -336 -697 -751 -382 -414 -705 -764 -719 -776 -14 -13 45 69
130 182 85 113 222 300 305 415 147 205 488 711 499 738 3 8 -2 19 -9 26 -20
16 -28 7 -112 -124 -65 -99 -81 -116 -220 -232 -187 -157 -485 -380 -675 -508
-128 -86 -411 -259 -480 -295 -22 -11 -23 -11 -10 2 8 8 62 53 120 100 478
388 1002 955 1419 1536 95 132 368 542 377 566 5 12 0 16 -19 16 -21 0 -40
-23 -123 -152z m3995 -2573 c6 -203 14 -458 17 -566 l6 -196 -62 -6 c-63 -7
-380 -10 -380 -4 0 2 41 111 90 243 90 236 219 622 276 821 16 56 32 97 35 90
4 -7 12 -178 18 -382z m-5219 271 c0 -2 -8 -10 -17 -17 -16 -13 -17 -12 -4 4
13 16 21 21 21 13z m6659 -656 c102 -239 171 -413 171 -427 0 -11 -9 -13 -37
-9 -21 3 -121 11 -223 17 -102 6 -186 12 -188 13 -1 2 9 90 22 197 14 107 32
286 41 399 26 336 16 324 94 115 37 -99 91 -236 120 -305z m-3858 -5606 c13
-928 73 -1536 195 -1979 76 -277 189 -526 278 -617 54 -55 28 -48 -36 10 -306
277 -488 1295 -484 2712 1 168 5 311 9 318 28 43 32 -1 38 -444z m1264 233 c4
-13 5 -48 3 -78 -3 -46 -6 -54 -23 -54 -18 0 -20 8 -23 78 -3 72 -1 77 17 77
13 0 23 -8 26 -23z m-1357 -209 l3 -158 -144 0 c-185 0 -182 -2 -191 157 -5
73 -3 119 4 132 12 23 50 28 215 27 l110 -1 3 -157z m1652 6 c11 -27 -1 -249
-14 -261 -4 -5 -81 -9 -172 -11 -130 -3 -164 -1 -165 10 -4 59 4 246 12 264 8
24 10 24 169 24 l160 0 10 -26z m729 -154 c-17 -252 -31 -393 -45 -447 -8 -30
-14 -64 -14 -76 0 -55 -68 -118 -141 -131 -28 -5 -42 -2 -63 15 -37 29 -53 64
-77 166 -11 49 -30 107 -42 130 -19 38 -20 46 -9 85 7 25 12 104 13 188 l0
145 18 -65 c10 -36 28 -86 41 -111 l23 -47 36 15 c20 8 70 18 112 20 74 6 77
7 92 37 8 18 25 74 37 124 12 51 24 91 25 90 2 -2 -1 -64 -6 -138z m-986 -275
c10 -127 -6 -563 -28 -801 -42 -447 -123 -842 -224 -1088 -101 -248 -221 -376
-368 -391 l-48 -6 50 26 c113 57 211 163 287 311 181 351 278 977 278 1802 l0
263 23 -3 c21 -3 22 -9 30 -113z m5481 -43 c16 -52 106 -762 140 -1107 106
-1049 162 -2401 140 -3357 -9 -406 -12 -429 -48 -415 -15 6 -16 60 -10 544 17
1385 -78 2931 -251 4123 -28 198 -30 227 -12 233 18 6 36 -3 41 -21z m413
-1934 c-2 -13 -4 -3 -4 22 0 25 2 35 4 23 2 -13 2 -33 0 -45z m10 -105 c-2
-16 -4 -3 -4 27 0 30 2 43 4 28 2 -16 2 -40 0 -55z m31 -303 c-1 -25 -7 7 -13
70 -7 63 -13 135 -13 160 1 25 7 -7 13 -70 7 -63 13 -135 13 -160z m9 -122
c-2 -13 -4 -3 -4 22 0 25 2 35 4 23 2 -13 2 -33 0 -45z m30 -330 c-3 -8 -6 -5
-6 6 -1 11 2 17 5 13 3 -3 4 -12 1 -19z m-9961 -753 c3 -8 -56 -120 -139 -262
-647 -1107 -1139 -2084 -1302 -2583 -30 -93 -45 -116 -69 -107 -23 9 -20 34
15 139 149 446 558 1278 1087 2208 107 189 344 594 355 608 13 17 46 15 53 -3z"/>
<path d="M13705 15983 c-4 -10 -10 -84 -13 -165 -4 -129 -2 -148 11 -148 9 0
71 62 138 138 67 75 134 149 148 165 l25 27 -151 0 c-134 0 -152 -2 -158 -17z"/>
<path d="M22110 646 c0 -5 -88 -385 -145 -624 -5 -22 -5 -22 125 -22 86 0 130
4 130 11 0 20 -102 634 -106 638 -2 2 -4 1 -4 -3z"/>
<path d="M16002 629 c-13 -5 -21 -13 -17 -18 3 -6 254 -10 643 -9 351 0 691
-5 757 -10 118 -10 152 -5 128 19 -6 6 -66 14 -134 19 -164 12 -1347 11 -1377
-1z"/>
</g>
</svg>
